<?xml version="1.0" standalone="no"?>
<!DOCTYPE svg PUBLIC "-//W3C//DTD SVG 20010904//EN"
 "http://www.w3.org/TR/2001/REC-SVG-20010904/DTD/svg10.dtd">
<svg version="1.0" xmlns="http://www.w3.org/2000/svg"
 width="300.000000pt" height="300.000000pt" viewBox="0 0 300.000000 300.000000"
 preserveAspectRatio="xMidYMid meet">
<metadata>
Created by potrace 1.11, written by Peter Selinger 2001-2013
</metadata>
<g transform="translate(0.000000,300.000000) scale(0.100000,-0.100000)"
fill="#000000" stroke="none">
<path d="M1390 2637 c-3 -3 -35 -7 -73 -11 -136 -12 -322 -70 -454 -142 -287
-157 -475 -411 -540 -732 -18 -92 -25 -321 -12 -412 34 -245 127 -438 289
-601 129 -130 274 -218 461 -279 89 -29 98 -31 239 -55 84 -14 349 -14 415 -1
17 4 55 11 85 17 209 42 437 160 589 304 171 162 255 320 296 554 10 61 15
122 21 279 l6 152 -616 0 -616 0 0 -259 0 -259 180 2 c99 0 180 -1 180 -3 0
-2 -11 -23 -24 -46 -48 -81 -165 -136 -289 -136 -92 0 -118 6 -186 39 -144 70
-235 231 -235 417 0 123 10 169 60 272 107 218 395 301 590 170 27 -17 58 -47
69 -64 16 -27 25 -32 45 -27 73 16 720 259 720 270 0 7 -23 46 -50 87 -136
204 -407 365 -735 437 -91 20 -401 40 -415 27z"/>
</g>
</svg>
